<svg width="103" height="129" viewBox="0 0 103 129" fill="none" xmlns="http://www.w3.org/2000/svg">
<g filter="url(#filter0_d)">
<path d="M40.8392 9.16215C33.035 9.25169 26.4422 0.166233 18.6436 4.22105C14.2772 6.48955 9.96108 10.1127 7.29694 16.4406C6.27227 18.8721 5.52782 21.5401 4.54358 24.052C3.38786 27.0047 3.22894 28.6257 2.72009 32.0101C2.16244 35.7343 2.03697 38.6778 2.00073 42.6707C1.97145 46.0734 2.8358 48.5279 2.94454 51.8089C3.05746 55.2966 2.94454 63.5 5.69651 67.0432L7 69.5C7.23979 74.3194 13.1689 80.1169 14.2494 81.8963C17.9674 88.0268 16.4033 96.8367 18.4205 103.971C19.1427 106.526 19.4912 107.291 21.2143 108.574C22.1079 109.24 23.4979 110.521 24.3985 110.875C26.8842 111.853 29.2444 113.152 31.5433 114.3C34.0805 115.563 37.0193 116.383 39.7072 115.439C40.3303 115.219 40.8615 114.413 41.7412 114.22C42.3643 114.266 42.9875 114.273 43.612 114.257C44.8444 114.271 46.0782 114.271 47.312 114.257C49.1648 114.238 50.2243 114.702 51.9349 115.442C53.4879 116.11 55.0047 115.451 56.5577 116.119C59.2539 117.278 61.946 116.734 64.6742 117.643C65.685 117.979 67.4597 119.203 68.6014 119.974C69.6024 120.654 70.3761 121.251 71.3283 121.921C73.2968 123.303 76.4698 124.747 78.7519 124.954C80.2799 125.09 81.8399 124.878 83.372 124.915C84.794 124.947 85.2987 124.171 86.3568 123.733C88.9693 122.642 91.6404 122.259 93.7985 119.203C96.5198 115.352 100.717 109.555 100.989 103.635C101.138 100.363 99.6886 97.5692 98.8661 94.8392C98.5608 93.8335 98.2332 92.9128 97.9432 91.7877C97.702 90.8509 97.4985 89.1817 97.2726 88.3207C95.9287 83.2097 96.3219 77.4764 96.3219 71.6146C96.3219 60.8439 98.1983 44.6315 92.4407 36.965C86.7611 29.3972 81.1275 23.4757 77.5725 12.5511C76.17 8.24143 75.381 3.1465 72.5049 1.1742C69.3013 -1.02082 65.4703 0.246594 62.1035 1.84694C58.575 3.52535 55.5651 8.91647 51.9321 9.20118C48.2572 9.49048 44.5238 9.12082 40.8392 9.16215Z" fill="#231F20"/>
</g>
<defs>
<filter id="filter0_d" x="0" y="0" width="103" height="129" filterUnits="userSpaceOnUse" color-interpolation-filters="sRGB">
<feFlood flood-opacity="0" result="BackgroundImageFix"/>
<feColorMatrix in="SourceAlpha" type="matrix" values="0 0 0 0 0 0 0 0 0 0 0 0 0 0 0 0 0 0 127 0"/>
<feOffset dy="2"/>
<feGaussianBlur stdDeviation="1"/>
<feColorMatrix type="matrix" values="0 0 0 0 0 0 0 0 0 0 0 0 0 0 0 0 0 0 0.25 0"/>
<feBlend mode="normal" in2="BackgroundImageFix" result="effect1_dropShadow"/>
<feBlend mode="normal" in="SourceGraphic" in2="effect1_dropShadow" result="shape"/>
</filter>
</defs>
</svg>
