<svg width="148" height="161" viewBox="0 0 148 161" fill="none" xmlns="http://www.w3.org/2000/svg">
<g filter="url(#filter0_d)">
<path d="M40.3772 153.376C43.8578 155.243 49.0126 158.402 53.7019 156.311C58.6044 154.128 61.0413 147.497 64.0104 143.081C66.7144 139.055 69.9563 136.26 73.4459 133.203C78.6415 128.654 87.2558 126.147 92.9271 126.13C96.1804 126.127 98.584 128.81 101.584 129.526C104.392 130.194 109.663 127.736 112.376 125.563C118.103 120.98 127.134 111.657 128.04 104.344C128.912 97.2731 127.906 90.0901 129.081 83.1013C129.685 79.5622 130.882 74.876 132.684 71.4022C133.742 69.3566 135.928 67.7256 136.869 65.6415C137.758 63.6756 136.884 62.8382 137.767 60.8677C138.675 58.8212 140.836 57.0183 141.939 55.0344C143.297 52.5967 142.944 52.0991 143.714 50.012C145.545 45.025 146.157 42.1045 145.967 37.2994C145.703 30.5327 141.539 25.094 136.055 22.5292C132.896 21.0522 130.458 21.6305 127.404 19.4287C124.03 16.9973 120.562 14.6889 117.147 12.3184C111.083 8.10939 105.525 3.72919 98.5341 1.61793C95.1608 0.600182 93.8359 -1.10336 89.6941 1.00778C87.0439 2.35515 82.3366 5.04177 80.0761 7.11794C74.3392 12.3925 78.6562 12.3894 76.9863 19.4287C76.4398 21.7223 82.2438 27.8402 82.3045 29.887C82.4488 34.8488 81.1897 43.55 84.4922 45.7095C87.9623 47.9767 84.6419 59.9093 82.3045 65.6415C80.8962 69.0931 76.3181 74.8223 73.4459 77.669C70.9323 80.1606 63.725 75.7616 60.7646 77.669C57.717 79.6272 54.3993 82.3103 51.2217 83.8313C47.9314 85.4069 44.4339 85.6136 41.5235 88.3309C37.9615 91.6584 35.039 96.9459 32.2332 101.119C26.6053 109.481 6.39185 105.694 2.2323 116.471C0.301676 121.479 10.9966 126.952 12.472 129.955C13.4604 131.982 14.371 133.106 15.4638 134.953C16.3215 136.396 17.3916 138.655 18.3865 139.98C21.2032 143.7 26.9686 142.758 30.5595 145.405C33.9889 147.935 36.5701 151.333 40.3772 153.376Z" fill="#EFF4FB"/>
</g>
<defs>
<filter id="filter0_d" x="0" y="0" width="148" height="161" filterUnits="userSpaceOnUse" color-interpolation-filters="sRGB">
<feFlood flood-opacity="0" result="BackgroundImageFix"/>
<feColorMatrix in="SourceAlpha" type="matrix" values="0 0 0 0 0 0 0 0 0 0 0 0 0 0 0 0 0 0 127 0"/>
<feOffset dy="2"/>
<feGaussianBlur stdDeviation="1"/>
<feColorMatrix type="matrix" values="0 0 0 0 0 0 0 0 0 0 0 0 0 0 0 0 0 0 0.25 0"/>
<feBlend mode="normal" in2="BackgroundImageFix" result="effect1_dropShadow"/>
<feBlend mode="normal" in="SourceGraphic" in2="effect1_dropShadow" result="shape"/>
</filter>
</defs>
</svg>
